<mxfile host="app.diagrams.net" agent="Mozilla/5.0 (Windows NT 10.0; Win64; x64) AppleWebKit/537.36 (KHTML, like Gecko) Chrome/132.0.0.0 Safari/537.36" version="26.0.10">
  <diagram name="Page-1" id="FlKXEsf6NecXJLn8cm3T">
    <mxGraphModel dx="1434" dy="746" grid="1" gridSize="10" guides="1" tooltips="1" connect="1" arrows="1" fold="1" page="1" pageScale="1" pageWidth="850" pageHeight="1100" math="0" shadow="0">
      <root>
        <mxCell id="0" />
        <mxCell id="1" parent="0" />
        <mxCell id="HXBWa4Z52gTGo2rOVxVv-3" value="SWIFT Payment" style="rounded=0;whiteSpace=wrap;html=1;" parent="1" vertex="1">
          <mxGeometry x="120" y="40" width="120" height="40" as="geometry" />
        </mxCell>
        <mxCell id="HXBWa4Z52gTGo2rOVxVv-4" value="SEPA Payment" style="rounded=0;whiteSpace=wrap;html=1;" parent="1" vertex="1">
          <mxGeometry x="600" y="40" width="120" height="40" as="geometry" />
        </mxCell>
        <mxCell id="HXBWa4Z52gTGo2rOVxVv-5" value="MQ" style="rounded=0;whiteSpace=wrap;html=1;" parent="1" vertex="1">
          <mxGeometry x="280" y="80" width="120" height="40" as="geometry" />
        </mxCell>
        <mxCell id="HXBWa4Z52gTGo2rOVxVv-11" value="Payment Processor" style="rounded=0;whiteSpace=wrap;html=1;" parent="1" vertex="1">
          <mxGeometry x="350" y="150" width="120" height="30" as="geometry" />
        </mxCell>
        <mxCell id="NUsTyzqWWJ3NzxP0thtO-1" value="SFTP" style="rounded=0;whiteSpace=wrap;html=1;" vertex="1" parent="1">
          <mxGeometry x="440" y="80" width="120" height="40" as="geometry" />
        </mxCell>
        <mxCell id="NUsTyzqWWJ3NzxP0thtO-7" value="" style="endArrow=classic;startArrow=classic;html=1;rounded=0;exitX=1;exitY=0.5;exitDx=0;exitDy=0;entryX=0.367;entryY=-0.025;entryDx=0;entryDy=0;entryPerimeter=0;" edge="1" parent="1" source="HXBWa4Z52gTGo2rOVxVv-3" target="HXBWa4Z52gTGo2rOVxVv-5">
          <mxGeometry width="50" height="50" relative="1" as="geometry">
            <mxPoint x="250" y="80" as="sourcePoint" />
            <mxPoint x="300" y="30" as="targetPoint" />
            <Array as="points">
              <mxPoint x="320" y="60" />
            </Array>
          </mxGeometry>
        </mxCell>
        <mxCell id="NUsTyzqWWJ3NzxP0thtO-8" value="" style="endArrow=classic;startArrow=classic;html=1;rounded=0;exitX=0.5;exitY=0;exitDx=0;exitDy=0;entryX=0;entryY=0.5;entryDx=0;entryDy=0;" edge="1" parent="1" source="NUsTyzqWWJ3NzxP0thtO-1" target="HXBWa4Z52gTGo2rOVxVv-4">
          <mxGeometry width="50" height="50" relative="1" as="geometry">
            <mxPoint x="500" y="61" as="sourcePoint" />
            <mxPoint x="584" y="80" as="targetPoint" />
            <Array as="points">
              <mxPoint x="500" y="60" />
              <mxPoint x="580" y="61" />
            </Array>
          </mxGeometry>
        </mxCell>
        <mxCell id="NUsTyzqWWJ3NzxP0thtO-10" value="" style="endArrow=classic;startArrow=classic;html=1;rounded=0;entryX=1;entryY=0.5;entryDx=0;entryDy=0;" edge="1" parent="1" target="HXBWa4Z52gTGo2rOVxVv-11">
          <mxGeometry width="50" height="50" relative="1" as="geometry">
            <mxPoint x="440" y="680" as="sourcePoint" />
            <mxPoint x="450" y="360" as="targetPoint" />
            <Array as="points">
              <mxPoint x="620" y="680" />
              <mxPoint x="800" y="680" />
              <mxPoint x="800" y="160" />
              <mxPoint x="640" y="160" />
              <mxPoint x="500" y="160" />
            </Array>
          </mxGeometry>
        </mxCell>
        <mxCell id="NUsTyzqWWJ3NzxP0thtO-11" value="" style="image;aspect=fixed;html=1;points=[];align=center;fontSize=12;image=img/lib/azure2/databases/SQL_Server.svg;" vertex="1" parent="1">
          <mxGeometry x="380" y="640" width="68" height="68" as="geometry" />
        </mxCell>
        <mxCell id="NUsTyzqWWJ3NzxP0thtO-12" value="State Machines (Handlers)" style="rounded=0;whiteSpace=wrap;html=1;" vertex="1" parent="1">
          <mxGeometry x="350" y="200" width="120" height="40" as="geometry" />
        </mxCell>
        <mxCell id="NUsTyzqWWJ3NzxP0thtO-13" value="Payment Transformer" style="rounded=0;whiteSpace=wrap;html=1;" vertex="1" parent="1">
          <mxGeometry x="350" y="280" width="120" height="40" as="geometry" />
        </mxCell>
        <mxCell id="NUsTyzqWWJ3NzxP0thtO-14" value="" style="shape=image;html=1;verticalAlign=top;verticalLabelPosition=bottom;labelBackgroundColor=#ffffff;imageAspect=0;aspect=fixed;image=https://cdn3.iconfinder.com/data/icons/UltimateGnome/128x128/apps/gnome-remote-desktop.png" vertex="1" parent="1">
          <mxGeometry x="540" y="360" width="128" height="128" as="geometry" />
        </mxCell>
        <mxCell id="NUsTyzqWWJ3NzxP0thtO-15" value="Windows UI" style="text;html=1;align=center;verticalAlign=middle;resizable=0;points=[];autosize=1;strokeColor=none;fillColor=none;" vertex="1" parent="1">
          <mxGeometry x="660" y="398" width="90" height="30" as="geometry" />
        </mxCell>
        <mxCell id="NUsTyzqWWJ3NzxP0thtO-16" value="API Service" style="rounded=0;whiteSpace=wrap;html=1;" vertex="1" parent="1">
          <mxGeometry x="410" y="398" width="75" height="60" as="geometry" />
        </mxCell>
        <mxCell id="NUsTyzqWWJ3NzxP0thtO-17" value="" style="endArrow=classic;startArrow=classic;html=1;rounded=0;entryX=-0.016;entryY=0.555;entryDx=0;entryDy=0;entryPerimeter=0;" edge="1" parent="1" target="NUsTyzqWWJ3NzxP0thtO-14">
          <mxGeometry width="50" height="50" relative="1" as="geometry">
            <mxPoint x="485" y="430" as="sourcePoint" />
            <mxPoint x="535" y="380" as="targetPoint" />
          </mxGeometry>
        </mxCell>
        <mxCell id="NUsTyzqWWJ3NzxP0thtO-19" value="" style="endArrow=classic;startArrow=classic;html=1;rounded=0;" edge="1" parent="1">
          <mxGeometry width="50" height="50" relative="1" as="geometry">
            <mxPoint x="470" y="220" as="sourcePoint" />
            <mxPoint x="800" y="220" as="targetPoint" />
          </mxGeometry>
        </mxCell>
        <mxCell id="NUsTyzqWWJ3NzxP0thtO-21" value="Web-API" style="rounded=0;whiteSpace=wrap;html=1;" vertex="1" parent="1">
          <mxGeometry x="320" y="400" width="70" height="60" as="geometry" />
        </mxCell>
        <mxCell id="NUsTyzqWWJ3NzxP0thtO-23" value="" style="endArrow=classic;startArrow=classic;html=1;rounded=0;" edge="1" parent="1">
          <mxGeometry width="50" height="50" relative="1" as="geometry">
            <mxPoint x="370" y="680" as="sourcePoint" />
            <mxPoint x="340" y="460" as="targetPoint" />
            <Array as="points">
              <mxPoint x="340" y="680" />
            </Array>
          </mxGeometry>
        </mxCell>
        <mxCell id="NUsTyzqWWJ3NzxP0thtO-24" value="" style="points=[];aspect=fixed;html=1;align=center;shadow=0;dashed=0;fillColor=#FF6A00;strokeColor=none;shape=mxgraph.alibaba_cloud.openapi_explorer;" vertex="1" parent="1">
          <mxGeometry x="193" y="405" width="47.400000000000006" height="47.400000000000006" as="geometry" />
        </mxCell>
        <mxCell id="NUsTyzqWWJ3NzxP0thtO-25" value="Open-API" style="text;html=1;align=center;verticalAlign=middle;resizable=0;points=[];autosize=1;strokeColor=none;fillColor=none;" vertex="1" parent="1">
          <mxGeometry x="170" y="460" width="80" height="30" as="geometry" />
        </mxCell>
        <mxCell id="NUsTyzqWWJ3NzxP0thtO-26" value="" style="endArrow=classic;startArrow=classic;html=1;rounded=0;entryX=-0.057;entryY=0.617;entryDx=0;entryDy=0;entryPerimeter=0;" edge="1" parent="1" target="NUsTyzqWWJ3NzxP0thtO-21">
          <mxGeometry width="50" height="50" relative="1" as="geometry">
            <mxPoint x="240.4" y="438" as="sourcePoint" />
            <mxPoint x="290.4" y="388" as="targetPoint" />
          </mxGeometry>
        </mxCell>
        <mxCell id="NUsTyzqWWJ3NzxP0thtO-27" value="" style="shadow=0;dashed=0;html=1;strokeColor=none;fillColor=#4495D1;labelPosition=center;verticalLabelPosition=bottom;verticalAlign=top;align=center;outlineConnect=0;shape=mxgraph.veeam.2d.web_ui;" vertex="1" parent="1">
          <mxGeometry x="76" y="287.4" width="44.8" height="44.8" as="geometry" />
        </mxCell>
        <mxCell id="NUsTyzqWWJ3NzxP0thtO-28" value="Web UI" style="text;html=1;align=center;verticalAlign=middle;resizable=0;points=[];autosize=1;strokeColor=none;fillColor=none;" vertex="1" parent="1">
          <mxGeometry x="115.8" y="287.4" width="60" height="30" as="geometry" />
        </mxCell>
        <mxCell id="NUsTyzqWWJ3NzxP0thtO-29" value="Open Banking Clients" style="rounded=0;whiteSpace=wrap;html=1;" vertex="1" parent="1">
          <mxGeometry x="76" y="560" width="74" height="60" as="geometry" />
        </mxCell>
        <mxCell id="NUsTyzqWWJ3NzxP0thtO-30" value="" style="endArrow=classic;startArrow=classic;html=1;rounded=0;exitX=1;exitY=0.5;exitDx=0;exitDy=0;" edge="1" parent="1" source="NUsTyzqWWJ3NzxP0thtO-29">
          <mxGeometry width="50" height="50" relative="1" as="geometry">
            <mxPoint x="170" y="540" as="sourcePoint" />
            <mxPoint x="220" y="490" as="targetPoint" />
            <Array as="points">
              <mxPoint x="220" y="590" />
            </Array>
          </mxGeometry>
        </mxCell>
        <mxCell id="NUsTyzqWWJ3NzxP0thtO-32" value="" style="endArrow=classic;startArrow=classic;html=1;rounded=0;" edge="1" parent="1">
          <mxGeometry width="50" height="50" relative="1" as="geometry">
            <mxPoint x="126" y="317" as="sourcePoint" />
            <mxPoint x="220" y="400" as="targetPoint" />
            <Array as="points">
              <mxPoint x="220" y="320" />
            </Array>
          </mxGeometry>
        </mxCell>
        <mxCell id="NUsTyzqWWJ3NzxP0thtO-33" value="" style="endArrow=classic;startArrow=classic;html=1;rounded=0;exitX=0.36;exitY=-0.05;exitDx=0;exitDy=0;exitPerimeter=0;" edge="1" parent="1" source="NUsTyzqWWJ3NzxP0thtO-16">
          <mxGeometry width="50" height="50" relative="1" as="geometry">
            <mxPoint x="385" y="370" as="sourcePoint" />
            <mxPoint x="435" y="320" as="targetPoint" />
          </mxGeometry>
        </mxCell>
        <mxCell id="NUsTyzqWWJ3NzxP0thtO-34" value="" style="endArrow=classic;startArrow=classic;html=1;rounded=0;exitX=0.25;exitY=0;exitDx=0;exitDy=0;" edge="1" parent="1" source="HXBWa4Z52gTGo2rOVxVv-11">
          <mxGeometry width="50" height="50" relative="1" as="geometry">
            <mxPoint x="330" y="170" as="sourcePoint" />
            <mxPoint x="380" y="120" as="targetPoint" />
          </mxGeometry>
        </mxCell>
        <mxCell id="NUsTyzqWWJ3NzxP0thtO-36" value="" style="endArrow=classic;startArrow=classic;html=1;rounded=0;exitX=0.908;exitY=-0.033;exitDx=0;exitDy=0;exitPerimeter=0;" edge="1" parent="1" source="HXBWa4Z52gTGo2rOVxVv-11">
          <mxGeometry width="50" height="50" relative="1" as="geometry">
            <mxPoint x="410" y="170" as="sourcePoint" />
            <mxPoint x="460" y="120" as="targetPoint" />
          </mxGeometry>
        </mxCell>
        <mxCell id="NUsTyzqWWJ3NzxP0thtO-37" value="" style="endArrow=classic;startArrow=classic;html=1;rounded=0;exitX=0.25;exitY=0;exitDx=0;exitDy=0;" edge="1" parent="1">
          <mxGeometry width="50" height="50" relative="1" as="geometry">
            <mxPoint x="409" y="200" as="sourcePoint" />
            <mxPoint x="410" y="180" as="targetPoint" />
          </mxGeometry>
        </mxCell>
        <mxCell id="NUsTyzqWWJ3NzxP0thtO-38" value="" style="endArrow=classic;startArrow=classic;html=1;rounded=0;exitX=0.5;exitY=0;exitDx=0;exitDy=0;" edge="1" parent="1" source="NUsTyzqWWJ3NzxP0thtO-13">
          <mxGeometry width="50" height="50" relative="1" as="geometry">
            <mxPoint x="409" y="269" as="sourcePoint" />
            <mxPoint x="410" y="240" as="targetPoint" />
          </mxGeometry>
        </mxCell>
        <mxCell id="NUsTyzqWWJ3NzxP0thtO-39" value="Card Funding" style="rounded=0;whiteSpace=wrap;html=1;" vertex="1" parent="1">
          <mxGeometry x="76" y="360" width="84" height="40" as="geometry" />
        </mxCell>
        <mxCell id="NUsTyzqWWJ3NzxP0thtO-40" value="Direct Debit" style="rounded=0;whiteSpace=wrap;html=1;" vertex="1" parent="1">
          <mxGeometry x="76" y="440" width="84" height="40" as="geometry" />
        </mxCell>
        <mxCell id="NUsTyzqWWJ3NzxP0thtO-41" style="edgeStyle=orthogonalEdgeStyle;rounded=0;orthogonalLoop=1;jettySize=auto;html=1;exitX=1;exitY=0.5;exitDx=0;exitDy=0;entryX=0.211;entryY=0.021;entryDx=0;entryDy=0;entryPerimeter=0;" edge="1" parent="1" source="NUsTyzqWWJ3NzxP0thtO-39" target="NUsTyzqWWJ3NzxP0thtO-24">
          <mxGeometry relative="1" as="geometry" />
        </mxCell>
        <mxCell id="NUsTyzqWWJ3NzxP0thtO-43" style="edgeStyle=orthogonalEdgeStyle;rounded=0;orthogonalLoop=1;jettySize=auto;html=1;entryX=-0.042;entryY=0.633;entryDx=0;entryDy=0;entryPerimeter=0;" edge="1" parent="1" source="NUsTyzqWWJ3NzxP0thtO-40" target="NUsTyzqWWJ3NzxP0thtO-24">
          <mxGeometry relative="1" as="geometry" />
        </mxCell>
        <mxCell id="NUsTyzqWWJ3NzxP0thtO-44" value="Trade Booking" style="rounded=0;whiteSpace=wrap;html=1;" vertex="1" parent="1">
          <mxGeometry x="176" y="200" width="120" height="40" as="geometry" />
        </mxCell>
        <mxCell id="NUsTyzqWWJ3NzxP0thtO-45" value="" style="endArrow=classic;startArrow=classic;html=1;rounded=0;exitX=1;exitY=0.25;exitDx=0;exitDy=0;" edge="1" parent="1" source="NUsTyzqWWJ3NzxP0thtO-44">
          <mxGeometry width="50" height="50" relative="1" as="geometry">
            <mxPoint x="300" y="260" as="sourcePoint" />
            <mxPoint x="350" y="210" as="targetPoint" />
          </mxGeometry>
        </mxCell>
        <mxCell id="NUsTyzqWWJ3NzxP0thtO-46" value="Post Trade Systems" style="rounded=0;whiteSpace=wrap;html=1;" vertex="1" parent="1">
          <mxGeometry x="80" y="120" width="116" height="40" as="geometry" />
        </mxCell>
        <mxCell id="NUsTyzqWWJ3NzxP0thtO-47" value="" style="endArrow=classic;startArrow=classic;html=1;rounded=0;entryX=0.558;entryY=-0.05;entryDx=0;entryDy=0;entryPerimeter=0;" edge="1" parent="1" target="NUsTyzqWWJ3NzxP0thtO-44">
          <mxGeometry width="50" height="50" relative="1" as="geometry">
            <mxPoint x="196" y="140" as="sourcePoint" />
            <mxPoint x="250" y="200" as="targetPoint" />
            <Array as="points">
              <mxPoint x="240" y="140" />
            </Array>
          </mxGeometry>
        </mxCell>
        <mxCell id="NUsTyzqWWJ3NzxP0thtO-48" value="" style="image;aspect=fixed;html=1;points=[];align=center;fontSize=12;image=img/lib/azure2/integration/SQL_Data_Warehouses.svg;" vertex="1" parent="1">
          <mxGeometry x="170" y="680" width="64" height="65" as="geometry" />
        </mxCell>
        <mxCell id="NUsTyzqWWJ3NzxP0thtO-49" value="" style="endArrow=classic;html=1;rounded=0;exitX=-0.044;exitY=0.765;exitDx=0;exitDy=0;exitPerimeter=0;" edge="1" parent="1" source="NUsTyzqWWJ3NzxP0thtO-11">
          <mxGeometry width="50" height="50" relative="1" as="geometry">
            <mxPoint x="270" y="737.5" as="sourcePoint" />
            <mxPoint x="240" y="730" as="targetPoint" />
            <Array as="points">
              <mxPoint x="280" y="692" />
              <mxPoint x="280" y="730" />
            </Array>
          </mxGeometry>
        </mxCell>
        <mxCell id="NUsTyzqWWJ3NzxP0thtO-50" value="Data Warehouse&amp;nbsp;" style="text;html=1;align=center;verticalAlign=middle;resizable=0;points=[];autosize=1;strokeColor=none;fillColor=none;" vertex="1" parent="1">
          <mxGeometry x="50" y="697.5" width="120" height="30" as="geometry" />
        </mxCell>
        <mxCell id="NUsTyzqWWJ3NzxP0thtO-53" value="" style="fillColor=#28A8E0;verticalLabelPosition=bottom;sketch=0;html=1;strokeColor=#ffffff;verticalAlign=top;align=center;points=[[0.145,0.145,0],[0.5,0,0],[0.855,0.145,0],[1,0.5,0],[0.855,0.855,0],[0.5,1,0],[0.145,0.855,0],[0,0.5,0]];pointerEvents=1;shape=mxgraph.cisco_safe.compositeIcon;bgIcon=ellipse;resIcon=mxgraph.cisco_safe.capability.anomaly_detection;" vertex="1" parent="1">
          <mxGeometry x="580" y="520" width="43" height="43" as="geometry" />
        </mxCell>
        <mxCell id="NUsTyzqWWJ3NzxP0thtO-54" value="AML Detection&lt;div&gt;&lt;br&gt;&lt;/div&gt;" style="text;html=1;align=center;verticalAlign=middle;resizable=0;points=[];autosize=1;strokeColor=none;fillColor=none;" vertex="1" parent="1">
          <mxGeometry x="630" y="523" width="100" height="40" as="geometry" />
        </mxCell>
        <mxCell id="NUsTyzqWWJ3NzxP0thtO-55" value="AML Processor" style="rounded=0;whiteSpace=wrap;html=1;" vertex="1" parent="1">
          <mxGeometry x="390" y="520" width="120" height="30" as="geometry" />
        </mxCell>
        <mxCell id="NUsTyzqWWJ3NzxP0thtO-56" value="" style="endArrow=classic;html=1;rounded=0;" edge="1" parent="1">
          <mxGeometry width="50" height="50" relative="1" as="geometry">
            <mxPoint x="410" y="630" as="sourcePoint" />
            <mxPoint x="410" y="550" as="targetPoint" />
          </mxGeometry>
        </mxCell>
        <mxCell id="NUsTyzqWWJ3NzxP0thtO-57" value="" style="endArrow=classic;html=1;rounded=0;entryX=0;entryY=0.5;entryDx=0;entryDy=0;entryPerimeter=0;" edge="1" parent="1" target="NUsTyzqWWJ3NzxP0thtO-53">
          <mxGeometry width="50" height="50" relative="1" as="geometry">
            <mxPoint x="510" y="540" as="sourcePoint" />
            <mxPoint x="560" y="490" as="targetPoint" />
          </mxGeometry>
        </mxCell>
      </root>
    </mxGraphModel>
  </diagram>
</mxfile>
